<?xml version="1.0" encoding="utf-8"?>
<!-- Generator: Adobe Illustrator 16.0.0, SVG Export Plug-In . SVG Version: 6.00 Build 0)  -->
<!DOCTYPE svg PUBLIC "-//W3C//DTD SVG 1.1//EN" "http://www.w3.org/Graphics/SVG/1.1/DTD/svg11.dtd">
<svg version="1.1" id="Layer_1" xmlns="http://www.w3.org/2000/svg" xmlns:xlink="http://www.w3.org/1999/xlink" x="0px" y="0px"
	 width="1024px" height="768px" viewBox="0 0 1024 768" enable-background="new 0 0 1024 768" xml:space="preserve">
<g>
	<path fill="#4594eb" d="M692.48,49.92c-3.841-3.84-7.681-7.68-11.521-7.68c-7.68-3.84-19.2-3.84-30.72,0c-3.84,3.84-7.681,3.84-11.521,7.68
		l-115.2,115.2c-15.359,15.36-15.359,38.4,0,53.76c15.36,15.36,38.4,15.36,53.761,0l49.92-49.92V460.8
		c0,23.04,15.359,38.4,38.399,38.4s38.4-15.36,38.4-38.4V168.96l49.92,49.92c7.68,7.68,15.36,11.52,26.88,11.52
		c11.521,0,19.2-3.84,26.88-11.52c15.36-15.36,15.36-38.4,0-53.76L692.48,49.92z"/>
	<path fill="#4594eb" d="M446.72,395.52L396.8,445.44V153.6c0-23.04-15.36-38.4-38.4-38.4S320,130.56,320,153.6v291.84l-49.92-49.921
		c-15.36-15.359-38.4-15.359-53.76,0c-15.36,15.36-15.36,38.4,0,53.761l115.2,115.2c3.84,3.84,7.68,7.68,11.52,7.68
		c3.84,3.84,11.52,3.84,15.36,3.84c3.84,0,11.52,0,15.36-3.84c3.84-3.84,7.68-3.84,11.52-7.68l115.201-115.2
		c15.359-15.36,15.359-38.4,0-53.761C485.12,380.16,462.08,380.16,446.72,395.52z"/>
</g>
</svg>
